<?xml version="1.0" encoding="utf-8"?>
<!-- Generator: Adobe Illustrator 22.0.0, SVG Export Plug-In . SVG Version: 6.00 Build 0)  -->
<svg version="1.1" id="Capa_1" xmlns="http://www.w3.org/2000/svg" xmlns:xlink="http://www.w3.org/1999/xlink" x="0px" y="0px"
	 viewBox="0 0 79.1 81.9" style="enable-background:new 0 0 79.1 81.9;" xml:space="preserve">
<g>
	<path d="M68.2,74.7c-1,0-1.9-0.4-2.5-1.1L48.3,56.3c-1-1-1.3-2.5-0.8-3.8L35.4,40.4l-1.9,1.9c-0.7,0.7-1.6,1-2.5,1
		c-0.7,0-1.3-0.2-1.9-0.6l-0.9,0.9c1.2,1.5,1.1,3.7-0.3,5.1l-2.6,2.6c-0.7,0.7-1.7,1.1-2.7,1.1c-1,0-2-0.4-2.7-1.1L5.3,36.8
		c-0.7-0.7-1.1-1.7-1.1-2.7c0-1,0.4-2,1.1-2.7l2.6-2.6c0.7-0.7,1.7-1.1,2.7-1.1c0.9,0,1.7,0.3,2.4,0.8l0.9-0.9
		c-0.9-1.4-0.7-3.2,0.5-4.4l10-10c0.7-0.7,1.6-1,2.5-1c0.7,0,1.3,0.2,1.9,0.6l0.9-0.9c-0.5-0.7-0.8-1.5-0.8-2.4c0-1,0.4-2,1.1-2.7
		l2.6-2.6C33.2,3.4,34.2,3,35.2,3s2,0.4,2.7,1.1l1.7,1.7C40,6.2,40.1,6.6,40.1,7S40,7.8,39.7,8.1c-0.3,0.3-0.7,0.5-1.1,0.5
		c-0.4,0-0.8-0.2-1.1-0.5l-1.7-1.7c-0.1-0.1-0.3-0.2-0.4-0.2c-0.2,0-0.3,0.1-0.4,0.2L32.2,9c-0.2,0.2-0.2,0.6,0,0.9l14.6,14.6
		c0.1,0.1,0.3,0.2,0.4,0.2c0.2,0,0.3-0.1,0.4-0.2l2.6-2.6c0.2-0.2,0.2-0.6,0-0.9l-8.1-8.1c-0.3-0.3-0.5-0.7-0.5-1.1
		c0-0.4,0.2-0.8,0.5-1.1s0.7-0.5,1.1-0.5c0.4,0,0.8,0.2,1.1,0.5l8.1,8.1c1.5,1.5,1.5,3.9,0,5.4L50,26.8c-0.7,0.7-1.7,1.1-2.7,1.1
		c-0.9,0-1.7-0.3-2.4-0.8L44,27.9c0.9,1.4,0.7,3.2-0.5,4.4l-1.9,1.9l12.1,12.1c0.4-0.1,0.8-0.2,1.2-0.2c1,0,1.9,0.4,2.5,1.1
		l17.3,17.3c0.7,0.7,1.1,1.6,1.1,2.5c0,1-0.4,1.9-1.1,2.5l-4,4C70,74.3,69.1,74.7,68.2,74.7z M54.9,49.3c-0.1,0-0.2,0-0.3,0.1l-4,4
		c-0.1,0.1-0.1,0.2-0.1,0.3c0,0.1,0,0.2,0.1,0.3l17.3,17.3c0.1,0.1,0.2,0.1,0.3,0.1c0.1,0,0.2,0,0.3-0.1l4-4c0.2-0.2,0.2-0.4,0-0.6
		L55.2,49.4C55.1,49.3,55,49.3,54.9,49.3z M49.5,50l1.7-1.7L39.3,36.5l-1.7,1.7L49.5,50z M10.6,30.9c-0.2,0-0.3,0.1-0.4,0.2
		l-2.6,2.6c-0.1,0.1-0.2,0.3-0.2,0.4c0,0.2,0.1,0.3,0.2,0.4l14.6,14.6c0.1,0.1,0.3,0.2,0.4,0.2s0.3-0.1,0.4-0.2l2.6-2.6
		c0.1-0.1,0.2-0.3,0.2-0.4c0-0.2-0.1-0.3-0.2-0.4L11,31C10.9,30.9,10.8,30.9,10.6,30.9z M26,41.4l0.8-0.8L16.1,30l-0.8,0.8L26,41.4z
		 M26.9,15.3c-0.1,0-0.2,0-0.2,0.1l-10,10c-0.1,0.1-0.1,0.2-0.1,0.2c0,0.1,0,0.2,0.1,0.2l14.1,14.1c0.1,0.1,0.2,0.1,0.2,0.1
		c0.1,0,0.2,0,0.2-0.1l10-10c0.1-0.1,0.1-0.2,0.1-0.2c0-0.1,0-0.2-0.1-0.2L27.1,15.4C27.1,15.4,27,15.3,26.9,15.3z M41.8,25.6
		l0.8-0.8L31.9,14.1l-0.8,0.8L41.8,25.6z"/>
	<path d="M74.4,64.8L57.1,47.5c-0.6-0.6-1.4-0.9-2.2-0.9c-0.5,0-0.9,0.1-1.3,0.3L40.9,34.3l2.3-2.3c1.1-1.1,1.2-2.9,0.2-4.1l1.5-1.5
		l0.1,0.1c0.6,0.6,1.5,1,2.3,1c0.8,0,1.7-0.3,2.3-1l2.6-2.6c1.3-1.3,1.3-3.4,0-4.7L44.1,11c-0.4-0.4-1.1-0.4-1.5,0
		c-0.4,0.4-0.4,1.1,0,1.5l8.1,8.1c0.4,0.4,0.4,1.2,0,1.6l-2.6,2.6c-0.4,0.4-1.2,0.4-1.6,0L45.6,24l0,0L31.8,10.2l0,0
		c-0.4-0.4-0.4-1.2,0-1.6L34.4,6c0.4-0.4,1.2-0.4,1.6,0l1.7,1.7c0.4,0.4,1.1,0.4,1.5,0c0.4-0.4,0.4-1.1,0-1.5l-1.7-1.7
		c-1.3-1.3-3.4-1.3-4.7,0l-2.6,2.6c-1.3,1.3-1.3,3.4,0,4.7l0.1,0.1l-1.5,1.5c-0.5-0.5-1.2-0.7-2-0.7c-0.8,0-1.6,0.3-2.1,0.9l-10,10
		c-1.1,1.1-1.2,2.9-0.2,4.1L13,29.2l-0.1-0.1c-1.3-1.3-3.4-1.3-4.7,0l-2.6,2.6c-0.6,0.6-1,1.5-1,2.3s0.3,1.7,1,2.3L20.3,51
		c0.6,0.6,1.5,1,2.3,1c0.8,0,1.7-0.3,2.3-1l2.6-2.6c1.3-1.3,1.3-3.4,0-4.7l-0.1-0.1l1.5-1.5c0.6,0.5,1.3,0.7,2,0.7
		c0.8,0,1.6-0.3,2.1-0.9l2.3-2.3l12.7,12.7c-0.6,1.1-0.4,2.6,0.6,3.5L66,73.2c0.6,0.6,1.4,0.9,2.2,0.9c0.8,0,1.6-0.3,2.2-0.9l4-4
		c0.6-0.6,0.9-1.4,0.9-2.2C75.3,66.2,75,65.4,74.4,64.8z M31.9,13.4l11.4,11.4l-1.5,1.5L30.4,14.9L31.9,13.4z M26,46.9l-2.6,2.6
		c-0.4,0.4-1.2,0.4-1.6,0L7.2,34.9c-0.2-0.2-0.3-0.5-0.3-0.8s0.1-0.6,0.3-0.8l2.6-2.6c0.2-0.2,0.5-0.3,0.8-0.3
		c0.3,0,0.6,0.1,0.8,0.3L26,45.3C26.5,45.8,26.5,46.5,26,46.9z M26,42.2L14.5,30.8l0,0l1.5-1.5l11.4,11.4L26,42.2z M31.6,40.5
		c-0.3,0.3-0.9,0.3-1.2,0l0,0c0,0,0,0,0,0L16.2,26.3l0,0l0,0c-0.3-0.3-0.3-0.9,0-1.2l10-10c0.2-0.2,0.4-0.3,0.6-0.3
		c0.2,0,0.4,0.1,0.6,0.3l0,0c0,0,0,0,0,0l14.1,14.1c0,0,0,0,0,0l0,0c0.3,0.3,0.3,0.9,0,1.2L31.6,40.5z M36.9,38.2l1.2-1.2l1.2-1.2
		l12.6,12.6l-2.4,2.4L36.9,38.2z M72.9,67.7l-4,4c-0.4,0.4-0.9,0.4-1.3,0L50.2,54.4c-0.4-0.4-0.4-0.9,0-1.3l4-4l0,0l0,0l0.1-0.1
		c0.2-0.2,0.4-0.3,0.6-0.3c0.2,0,0.5,0.1,0.6,0.3l17.3,17.3C73.2,66.7,73.2,67.3,72.9,67.7z"/>
	<path d="M5.7,78.9c-1.4,0-2.5-1.1-2.5-2.5v-3.9c0-3.6,3-6.6,6.6-6.6h2.7c0.9,0,1.6,0.7,1.6,1.6s-0.7,1.6-1.6,1.6H9.9
		c-1.9,0-3.4,1.5-3.4,3.4v3.1h44.9v-3.1c0-1.9-1.5-3.4-3.4-3.4H19.3c-0.9,0-1.6-0.7-1.6-1.6s0.7-1.6,1.6-1.6H48
		c1.8,0,3.4,0.7,4.7,1.9c1.2,1.2,1.9,2.9,1.9,4.7v3.9c0,1.4-1.1,2.5-2.5,2.5H5.7z"/>
	<path d="M48,66.5H19.3c-0.6,0-1.1,0.5-1.1,1.1s0.5,1.1,1.1,1.1H48c2.2,0,3.9,1.8,3.9,3.9v3.7H6v-3.7c0-2.2,1.8-3.9,3.9-3.9h2.7
		c0.6,0,1.1-0.5,1.1-1.1s-0.5-1.1-1.1-1.1H9.9c-3.4,0-6.1,2.7-6.1,6.1v3.9c0,1.1,0.9,1.9,1.9,1.9h46.4c1.1,0,1.9-0.9,1.9-1.9v-3.9
		C54.1,69.2,51.3,66.5,48,66.5z"/>
</g>
</svg>
