<?xml version="1.0" encoding="utf-8"?>
<!-- Generator: Adobe Illustrator 22.0.0, SVG Export Plug-In . SVG Version: 6.00 Build 0)  -->
<svg version="1.1" id="Capa_1" xmlns="http://www.w3.org/2000/svg" xmlns:xlink="http://www.w3.org/1999/xlink" x="0px" y="0px"
	 viewBox="0 0 79.1 81.9" style="enable-background:new 0 0 79.1 81.9;" xml:space="preserve">
<g>
	<path d="M75.4,46c0,0.9-0.7,1.6-1.6,1.6c-0.9,0-1.6-0.7-1.6-1.6s0.7-1.6,1.6-1.6C74.7,44.4,75.4,45.1,75.4,46L75.4,46z M75.4,46"/>
	<path d="M55.3,34h-2.5c-0.8,0-1.4-0.6-1.4-1.4v-1.4c0-0.8,0.6-1.4,1.4-1.4h2.7c0.6,0,1.1,0.5,1.1,1.1c0,0.9,0.7,1.6,1.6,1.6
		s1.6-0.7,1.6-1.6c0-2.4-1.9-4.3-4.2-4.3v-1.4c0-0.9-0.7-1.6-1.6-1.6s-1.6,0.7-1.6,1.6v1.4c-2.4,0.2-4.2,2.2-4.2,4.6v1.4
		c0,2.5,2.1,4.6,4.6,4.6h2.5c0.8,0,1.4,0.6,1.4,1.4V40c0,0.8-0.6,1.4-1.4,1.4h-2.7c-0.6,0-1.1-0.5-1.1-1.1c0-0.9-0.7-1.6-1.6-1.6
		c-0.9,0-1.6,0.7-1.6,1.6c0,2.4,1.9,4.3,4.2,4.3V46c0,0.9,0.7,1.6,1.6,1.6s1.6-0.7,1.6-1.6v-1.4c2.4-0.2,4.2-2.2,4.2-4.6v-1.4
		C59.9,36,57.9,34,55.3,34L55.3,34z M55.3,34"/>
	<path d="M78.6,54.2c-0.7-1.5-1.9-2.6-3.4-3.2c-1.5-0.6-3.2-0.6-4.7,0.1c0,0,0,0,0,0l-10.1,4.6c-0.8,0.4-1.2,1.3-0.8,2.1
		c0.4,0.8,1.3,1.2,2.1,0.8L71.8,54c0.7-0.3,1.5-0.3,2.2,0c0.7,0.3,1.3,0.8,1.6,1.5c0.3,0.7,0.3,1.5,0.1,2.2
		c-0.3,0.7-0.8,1.3-1.5,1.6l-20.6,9.1c-3.3,1.4-6.9,1.4-10.1-0.2l-7.5-3.7c-4-2-8.7-2.1-12.8-0.3l-0.1,0l-5.6-12.7l7.8-3.4
		c3.7-1.6,7.9-1.8,11.7-0.4L52,53.3c1.4,0.5,2.1,2,1.6,3.4c-0.5,1.4-2,2.1-3.4,1.7l-11.7-4c-0.8-0.3-1.7,0.2-2,1
		c-0.3,0.8,0.2,1.7,1,2l11.7,4c0.6,0.2,1.3,0.3,1.9,0.3c2.4,0,4.7-1.5,5.6-4c1-3-0.6-6.3-3.5-7.4l-15.2-5.6c-1-0.4-2.1-0.7-3.1-0.9
		v-8.8c0-8.7,7.1-15.8,15.8-15.8h5.8c8.7,0,15.8,7.1,15.8,15.8v4.2c0,0.9,0.7,1.6,1.6,1.6c0.9,0,1.6-0.7,1.6-1.6v-4.2
		c0-9.2-6.6-17-15.4-18.7v-4.8l4-6.9c0.2-0.4,0.3-0.9,0.1-1.3c-0.1-0.4-0.5-0.8-0.9-1l-5-2.3c-0.4-0.2-0.8-0.2-1.2,0l-3.7,1.3
		l-3.3-1.3c-0.4-0.1-0.8-0.2-1.2,0l-5.2,2c-0.4,0.2-0.8,0.5-0.9,0.9c-0.2,0.4-0.1,0.9,0.1,1.3l4,7.2v4.8
		c-8.8,1.6-15.5,9.4-15.5,18.7v8.5c-2.6,0-5.3,0.5-7.8,1.6L16,48.7c-0.4-0.7-1.1-1.2-1.9-1.5c-1-0.4-2.1-0.4-3,0.1L1,51.7
		c-0.6,0.3-1,0.8-1,1.5v27.2c0,0.6,0.3,1.1,0.8,1.4c0.3,0.2,0.5,0.2,0.8,0.2c0.2,0,0.5-0.1,0.7-0.2L22,71.8c0.9-0.4,1.7-1.2,2.1-2.2
		c0.3-0.8,0.4-1.6,0.1-2.5l0.1-0.1c3.3-1.4,6.9-1.4,10.1,0.2l7.5,3.8c4,2,8.7,2.1,12.8,0.3l20.6-9.1c1.5-0.7,2.6-1.9,3.2-3.4
		C79.3,57.4,79.2,55.7,78.6,54.2L78.6,54.2z M56.9,16h-6.6v-3.3h6.6V16z M46.8,4.4l2.9-1.1l3.2,1.3c0.4,0.1,0.8,0.2,1.1,0l3.6-1.3
		l2.8,1.2l-2.9,5h-7.9L46.8,4.4z M20.6,68.9C20.6,68.9,20.6,68.9,20.6,68.9L3.2,77.7v-6.5L7.7,69c0.8-0.4,1.1-1.3,0.7-2.1
		c-0.4-0.8-1.3-1.1-2.1-0.7l-3.1,1.5V54.2l9.2-4c0.3-0.1,0.5-0.1,0.6,0c0.1,0,0.3,0.2,0.4,0.4l0.4,0.8c0,0,0,0,0,0l0,0L21,67.9
		C21.2,68.3,21,68.7,20.6,68.9L20.6,68.9z M20.6,68.9"/>
</g>
</svg>
