<?xml version="1.0" encoding="utf-8"?>
<!-- Generator: Adobe Illustrator 22.0.0, SVG Export Plug-In . SVG Version: 6.00 Build 0)  -->
<svg version="1.1" id="Capa_1" xmlns="http://www.w3.org/2000/svg" xmlns:xlink="http://www.w3.org/1999/xlink" x="0px" y="0px"
	 viewBox="0 0 79.1 81.9" style="enable-background:new 0 0 79.1 81.9;" xml:space="preserve">
<g>
	<path d="M49.7,15.4c-0.9,0-1.6,0.7-1.6,1.6v9.9c0,3-2.4,5.4-5.4,5.4c-0.9,0-1.6,0.7-1.6,1.6s0.7,1.6,1.6,1.6c4.8,0,8.6-3.9,8.6-8.6
		V17C51.3,16.1,50.6,15.4,49.7,15.4L49.7,15.4z M49.7,15.4"/>
	<path d="M67.8,7.1h-8.2V3.2c0.9,0,1.5-0.7,1.5-1.6c0-0.9-0.7-1.6-1.6-1.6H19.3c-0.9,0-1.6,0.7-1.6,1.6s0.7,1.6,1.6,1.6h0.3v3.9
		h-8.3c-3.7,0-6.7,2.8-6.7,6.1v4.9c0,7.8,6.7,14.2,15.3,14.8c1.1,6.4,6.4,11.3,12.9,11.8c0.5,2.3,0.8,4.7,0.8,7.1
		c0,2.2-0.3,4.4-0.7,6.6h-2.6c-1.8,0-3.2,1.4-3.2,3.2v11.1h-1.4c-3.2,0-5.9,2.6-5.9,5.9v1.7c0,0.9,0.7,1.6,1.6,1.6h36.6
		c0.9,0,1.6-0.7,1.6-1.6v-1.7c0-3.2-2.6-5.9-5.9-5.9h-1.4V61.6c0-1.8-1.4-3.2-3.2-3.2h-2.6c-0.6-2.1-0.9-4.4-0.9-6.6
		c0-2.4,0.3-4.8,0.9-7.1c6.6-0.5,11.9-5.4,13-11.8c8.5-0.6,15.2-7,15.2-14.8v-4.9C74.6,9.8,71.5,7.1,67.8,7.1L67.8,7.1z M49.1,61.6
		v11.1h-9.5c-0.9,0-1.6,0.7-1.6,1.6c0,0.9,0.7,1.6,1.6,1.6h14.1c1.5,0,2.7,1.2,2.7,2.7v0.1H22.9v-0.1c0-1.5,1.2-2.7,2.7-2.7h5
		c0.9,0,1.6-0.7,1.6-1.6c0-0.9-0.7-1.6-1.6-1.6h-0.4l0-11.1L49.1,61.6z M36,44.7h7.1c-0.5,2.3-0.8,4.7-0.8,7.1
		c0,2.2,0.3,4.4,0.8,6.5H36c0.4-2.2,0.7-4.3,0.7-6.5C36.7,49.5,36.4,47.1,36,44.7L36,44.7z M56.4,30.5c0,6.1-4.9,11-11,11H33.8
		c-6.1,0-11-4.9-11-11c0-0.9-0.7-1.6-1.6-1.6c-0.6,0-1.1,0.3-1.4,0.8C13,29.1,7.7,24.1,7.7,18.1v-4.9c0-1.6,1.6-2.9,3.5-2.9h8.3v8.2
		c0,0.9,0.7,1.6,1.6,1.6c0.9,0,1.6-0.7,1.6-1.6V3.2h33.6V30.5z M71.4,18.1c0,6-5.1,10.9-11.8,11.6V10.3h8.2c1.9,0,3.5,1.3,3.5,2.9
		V18.1z M71.4,18.1"/>
	<path d="M22.7,24.8c0,0.9-0.7,1.6-1.6,1.6c-0.9,0-1.6-0.7-1.6-1.6c0-0.9,0.7-1.6,1.6-1.6C22,23.2,22.7,23.9,22.7,24.8L22.7,24.8z
		 M22.7,24.8"/>
	<path d="M51.3,11c0,0.9-0.7,1.6-1.6,1.6s-1.6-0.7-1.6-1.6s0.7-1.6,1.6-1.6S51.3,10.1,51.3,11L51.3,11z M51.3,11"/>
</g>
</svg>
