<?xml version="1.0" encoding="utf-8"?>
<!-- Generator: Adobe Illustrator 22.0.0, SVG Export Plug-In . SVG Version: 6.00 Build 0)  -->
<svg version="1.1" id="Capa_1" xmlns="http://www.w3.org/2000/svg" xmlns:xlink="http://www.w3.org/1999/xlink" x="0px" y="0px"
	 viewBox="0 0 72.5 72.1" style="enable-background:new 0 0 72.5 72.1;" xml:space="preserve">
<g>
	<path d="M2.8,70.7c0,0.8-0.6,1.4-1.4,1.4S0,71.4,0,70.7c0-0.8,0.6-1.4,1.4-1.4S2.8,69.9,2.8,70.7L2.8,70.7z M2.8,70.7"/>
	<path d="M39.2,34.5c0,0.8-0.6,1.4-1.4,1.4c-0.8,0-1.4-0.6-1.4-1.4c0-0.8,0.6-1.4,1.4-1.4C38.6,33.1,39.2,33.7,39.2,34.5L39.2,34.5z
		 M39.2,34.5"/>
	<path d="M56.4,16.5c-1.1-1.1-2.7-1.8-4.3-1.8c-1.6,0-3.1,0.6-4.3,1.8c-2.4,2.4-2.4,6.2,0,8.6c1.2,1.2,2.7,1.8,4.3,1.8
		s3.1-0.6,4.3-1.8C58.8,22.7,58.8,18.9,56.4,16.5L56.4,16.5z M54.4,23c-1.3,1.3-3.3,1.3-4.5,0c-1.3-1.3-1.3-3.3,0-4.5
		c0.6-0.6,1.4-0.9,2.3-0.9c0.9,0,1.7,0.3,2.3,0.9C55.7,19.8,55.7,21.8,54.4,23L54.4,23z M54.4,23"/>
	<path d="M17.8,58.1c-0.7-0.3-1.6-0.1-1.9,0.6l-1.7,3.4c-0.7,1.5-2.2,2.5-3.9,2.6l-2,0.1c-0.3,0-0.6-0.1-0.7-0.2
		c-0.1-0.1-0.3-0.3-0.2-0.7l0.1-2c0.1-1.6,1.1-3.1,2.6-3.9l3.4-1.7c0.7-0.4,1-1.2,0.6-1.9c-0.3-0.7-1.2-1-1.9-0.6l-3.4,1.7
		c-2.4,1.2-4,3.6-4.1,6.2l-0.1,2c-0.1,1.1,0.3,2.1,1.1,2.9c0.7,0.7,1.6,1.1,2.6,1.1c0.1,0,0.2,0,0.3,0l2-0.1c2.7-0.2,5-1.8,6.2-4.1
		l1.7-3.4C18.7,59.3,18.5,58.4,17.8,58.1L17.8,58.1z M17.8,58.1"/>
	<path d="M71.5,0.9c-0.7-0.7-1.6-1-2.5-0.9l-1.3,0.1c-11.9,0.8-23,6.5-30.5,15.7l-3.1,3.8l-8.2-0.2c0,0,0,0,0,0
		c-6.5,0-12.5,2.5-17.1,7.1l-8.4,8.4c-0.4,0.4-0.5,1-0.3,1.5c0.2,0.5,0.7,0.9,1.3,0.9L19,38.2l-0.7,0.9c-0.4,0.4-0.4,1.1-0.1,1.6
		c0.3,0.5,0.6,1,0.9,1.5l-4.2,5c-0.4,0.4-0.4,1-0.2,1.5c0.9,1.9,2.1,3.7,3.6,5.2c1.5,1.5,3.3,2.8,5.3,3.7c0.2,0.1,0.4,0.1,0.6,0.1
		c0.3,0,0.6-0.1,0.9-0.3c0.9-0.7,1.9-1.6,3-2.4c0.7-0.6,1.5-1.2,2.1-1.8c0.4,0.2,0.8,0.5,1.2,0.7C31.6,54,31.8,54,32,54
		c0.3,0,0.6-0.1,0.9-0.3l1-0.8l0.9,17.8c0,0.6,0.4,1.1,0.9,1.3c0.2,0.1,0.3,0.1,0.5,0.1c0.4,0,0.7-0.1,1-0.4l8.4-8.4
		c4.6-4.6,7.1-10.7,7.1-17.1v-7.8l3.3-2.6c9.9-7.7,15.9-19.2,16.5-31.7l0-0.7C72.5,2.5,72.2,1.6,71.5,0.9L71.5,0.9z M4.7,34.6
		l6.1-6.1c4-4,9.4-6.3,15.1-6.3l6,0.2l-10.6,13L4.7,34.6z M26.2,52.7c-0.7,0.6-1.5,1.3-2.2,1.8c-1.4-0.7-2.6-1.7-3.7-2.8
		c-1-1.1-1.9-2.3-2.7-3.6l3.1-3.6c0.9,1.2,1.9,2.4,3,3.5c0,0,0,0,0,0c0,0,0,0,0,0c0,0,0,0,0,0c1.2,1.2,2.5,2.3,3.9,3.4
		C27.2,51.9,26.7,52.3,26.2,52.7L26.2,52.7z M49.8,46.2c0,5.7-2.2,11.1-6.3,15.1l-6.1,6.1l-0.8-16.5l13.2-10.2V46.2z M69.6,4
		c-0.6,11.7-6.2,22.4-15.4,29.6L31.9,50.9c-1.8-1.1-3.6-2.4-5.1-3.8l7.5-7.5c0.6-0.6,0.6-1.5,0-2c-0.6-0.6-1.5-0.6-2,0l-7.5,7.5
		c-1.4-1.5-2.6-3.2-3.6-5l18.3-22.5c7-8.6,17.4-14,28.4-14.7l1.3-0.1c0.2,0,0.3,0.1,0.3,0.1c0.1,0.1,0.1,0.2,0.1,0.3L69.6,4z
		 M69.6,4"/>
</g>
</svg>
